<svg xmlns="http://www.w3.org/2000/svg" width="272" height="71"
     style="shape-rendering:geometricPrecision; text-rendering:geometricPrecision; image-rendering:optimizeQuality; fill-rule:evenodd; clip-rule:evenodd"
     viewBox="0 0 2531.54 657.74" xmlns:xlink="http://www.w3.org/1999/xlink">
 <defs>
  <linearGradient id="id0" gradientUnits="userSpaceOnUse" x1="329.88" y1="16.15" x2="376.92" y2="473.99">
   <stop offset="0" style="stop-opacity:1; stop-color:#F6A607" />
    <stop offset="1" style="stop-opacity:1; stop-color:#E31E24" />
  </linearGradient>
   <linearGradient id="id1" gradientUnits="userSpaceOnUse" xlink:href="#id0" x1="184.17" y1="16.15" x2="231.22"
                   y2="473.99">
  </linearGradient>
   <linearGradient id="id2" gradientUnits="userSpaceOnUse" xlink:href="#id0" x1="38.65" y1="16.15" x2="85.69"
                   y2="473.99">
  </linearGradient>
 </defs>
  <g id="Слой_x0020_1">
  <metadata id="CorelCorpID_0Corel-Layer" />
    <path fill="#E54925" fill-rule="nonzero"
          d="M640.07 632.29l17.02 0 4.29 -25.61 26.09 0 -4.45 25.61 17.02 0 4.45 -25.61 18.77 0 0 -16.55 -15.91 0 4.62 -27.67 17.02 0 0 -16.55 -14.16 0 4.3 -24.97 -17.03 0 -4.13 24.97 -26.09 0 4.3 -24.97 -17.02 0 -4.3 24.97 -18.77 0 0 16.55 15.91 0 -4.62 27.67 -17.18 0 0 16.55 14.32 0 -4.45 25.61zm24.17 -42.16l4.78 -27.67 26.09 0 -4.78 27.67 -26.09 0z" />
    <path fill="white" fill-rule="nonzero"
          d="M1784.08 616.7l0 -24.02 17.82 0c4.96,0.02 8.8,1.01 11.51,2.99 2.67,1.99 4.05,4.86 4.08,8.62 -0.03,4.06 -1.35,7.16 -4,9.25 -2.63,2.1 -6.39,3.16 -11.27,3.16l-18.14 0zm-19.24 15.59l39.92 0c6.6,-0.03 12.3,-1.17 17.05,-3.39 4.77,-2.26 8.46,-5.47 11.03,-9.66 2.57,-4.16 3.87,-9.14 3.9,-14.95 -0.03,-4.56 -0.88,-8.54 -2.55,-11.88 -1.7,-3.34 -4.03,-6.09 -7.05,-8.27 -3.02,-2.17 -6.55,-3.79 -10.61,-4.82 -4.03,-1.06 -8.43,-1.59 -13.2,-1.59l-19.25 0 0 -29.43 -19.24 0 0 83.99zm-118.97 0.95c3.1,0.03 5.99,-0.24 8.7,-0.85 2.67,-0.58 5.14,-1.69 7.37,-3.34 2.22,-1.64 4.21,-4.02 5.93,-7.15 1.75,-3.13 3.21,-7.22 4.41,-12.25 1.19,-5.04 2.09,-11.22 2.73,-18.59 0.61,-7.37 0.93,-16.09 0.93,-26.22l26.24 0 0 67.45 19.25 0 0 -83.99 -63.47 0c0,10.6 -0.19,19.72 -0.53,27.28 -0.37,7.58 -0.88,13.92 -1.57,18.95 -0.66,5.04 -1.48,9.1 -2.46,12.12 -0.95,3 -2.04,5.28 -3.26,6.76 -1.22,1.49 -2.55,2.49 -3.98,2.97 -1.43,0.45 -2.97,0.69 -4.59,0.64 -0.45,0 -1,-0.03 -1.72,-0.11 -0.71,-0.05 -1.4,-0.13 -2.12,-0.21 -0.69,-0.11 -1.27,-0.21 -1.72,-0.32l-1.43 15.75c0.98,0.16 2.17,0.32 3.52,0.5 1.38,0.16 2.76,0.32 4.14,0.43 1.38,0.1 2.6,0.18 3.63,0.18zm-119.44 -0.95l18.13 0 39.93 -56 0 56 18.61 0 0 -83.99 -18.13 0c-6.68,9.38 -13.34,18.77 -19.94,28.15 -6.63,9.39 -13.23,18.77 -19.83,28.16l0 -56.31 -18.77 0 0 83.99zm-82.54 -14.95c-3.29,0 -6.39,-0.67 -9.33,-1.91 -2.94,-1.28 -5.54,-3.08 -7.8,-5.44 -2.28,-2.36 -4.08,-5.2 -5.38,-8.48 -1.3,-3.32 -1.96,-6.98 -1.99,-11.06 0.03,-4.11 0.69,-7.82 1.99,-11.16 1.3,-3.34 3.1,-6.2 5.38,-8.59 2.26,-2.39 4.86,-4.22 7.8,-5.51 2.94,-1.28 6.04,-1.94 9.33,-1.94 3.29,0 6.36,0.64 9.25,1.91 2.89,1.27 5.44,3.07 7.67,5.43 2.2,2.36 3.92,5.2 5.19,8.49 1.25,3.31 1.88,6.97 1.91,11.05 -0.03,4.22 -0.66,8.01 -1.88,11.38 -1.25,3.34 -2.97,6.2 -5.17,8.56 -2.2,2.34 -4.75,4.14 -7.64,5.38 -2.89,1.25 -6.01,1.89 -9.33,1.89zm-43.27 40.4l19.25 0 0 -38.5c1.94,2.63 4.27,5.07 6.92,7.3 2.68,2.22 5.78,4.02 9.33,5.4 3.56,1.36 7.64,2.04 12.23,2.1 4.03,0 7.95,-0.64 11.77,-1.86 3.82,-1.24 7.37,-3.07 10.66,-5.46 3.31,-2.41 6.2,-5.38 8.69,-8.91 2.49,-3.52 4.46,-7.55 5.86,-12.14 1.41,-4.56 2.12,-9.65 2.15,-15.22 -0.03,-5.64 -0.74,-10.76 -2.15,-15.37 -1.43,-4.62 -3.39,-8.7 -5.89,-12.25 -2.51,-3.53 -5.43,-6.53 -8.72,-8.94 -3.31,-2.41 -6.86,-4.24 -10.65,-5.49 -3.82,-1.22 -7.72,-1.85 -11.72,-1.85 -4.49,0.02 -8.49,0.74 -12.01,2.15 -3.53,1.37 -6.63,3.26 -9.34,5.61 -2.7,2.37 -5.09,5.04 -7.13,7.99l0 -14 -19.25 0 0 109.44zm-93.99 -25.45l19.25 0 0 -67.45 40.25 0 0 -16.54 -59.5 0 0 83.99z" />
    <path fill="white" fill-rule="nonzero"
          d="M1045.8 617.34c-3.29,0 -6.39,-0.67 -9.34,-1.91 -2.94,-1.28 -5.54,-3.08 -7.79,-5.44 -2.28,-2.36 -4.08,-5.2 -5.38,-8.48 -1.3,-3.32 -1.96,-6.98 -1.99,-11.06 0.03,-4.11 0.69,-7.82 1.99,-11.16 1.3,-3.34 3.1,-6.2 5.38,-8.59 2.25,-2.39 4.85,-4.22 7.79,-5.51 2.95,-1.28 6.05,-1.94 9.34,-1.94 3.28,0 6.36,0.64 9.25,1.91 2.89,1.27 5.43,3.07 7.66,5.43 2.2,2.36 3.92,5.2 5.2,8.49 1.24,3.31 1.88,6.97 1.91,11.05 -0.03,4.22 -0.67,8.01 -1.89,11.38 -1.24,3.34 -2.97,6.2 -5.17,8.56 -2.2,2.34 -4.74,4.14 -7.63,5.38 -2.89,1.25 -6.02,1.89 -9.33,1.89zm-43.27 40.4l19.25 0 0 -38.5c1.93,2.63 4.26,5.07 6.91,7.3 2.68,2.22 5.79,4.02 9.34,5.4 3.55,1.36 7.63,2.04 12.22,2.1 4.03,0 7.95,-0.64 11.77,-1.86 3.82,-1.24 7.37,-3.07 10.66,-5.46 3.31,-2.41 6.2,-5.38 8.69,-8.91 2.5,-3.52 4.46,-7.55 5.87,-12.14 1.4,-4.56 2.12,-9.65 2.14,-15.22 -0.02,-5.64 -0.74,-10.76 -2.14,-15.37 -1.44,-4.62 -3.4,-8.7 -5.89,-12.25 -2.52,-3.53 -5.44,-6.53 -8.72,-8.94 -3.32,-2.41 -6.87,-4.24 -10.66,-5.49 -3.82,-1.22 -7.72,-1.85 -11.72,-1.85 -4.48,0.02 -8.48,0.74 -12.01,2.15 -3.53,1.37 -6.63,3.26 -9.33,5.61 -2.71,2.37 -5.09,5.04 -7.13,7.99l0 -14 -19.25 0 0 109.44zm-60.75 -55.83c-0.02,3.52 -1,6.6 -2.94,9.25 -1.93,2.62 -4.56,4.69 -7.9,6.15 -3.34,1.48 -7.13,2.23 -11.42,2.25 -3.05,0 -5.81,-0.48 -8.25,-1.46 -2.44,-0.95 -4.35,-2.36 -5.78,-4.18 -1.43,-1.86 -2.17,-4.11 -2.2,-6.77 0,-2.81 0.77,-5.22 2.31,-7.21 1.51,-1.98 3.71,-3.5 6.57,-4.56 2.86,-1.06 6.34,-1.59 10.37,-1.59 3.76,0.03 7.29,0.35 10.58,0.96 3.28,0.61 6.17,1.4 8.66,2.38l0 4.78zm18.62 30.38l0 -49.79c0,-7.5 -1.35,-13.89 -4.06,-19.17 -2.7,-5.28 -6.79,-9.31 -12.25,-12.09 -5.46,-2.78 -12.33,-4.19 -20.6,-4.21 -4.53,0 -8.64,0.31 -12.33,0.9 -3.68,0.58 -7.1,1.4 -10.28,2.44 -3.21,1.06 -6.31,2.27 -9.36,3.65l5.25 15.43c2.52,-1.06 5.03,-1.99 7.53,-2.78 2.49,-0.77 5.09,-1.38 7.79,-1.8 2.68,-0.45 5.6,-0.67 8.7,-0.67 6.7,0.03 11.82,1.57 15.35,4.64 3.52,3.05 5.3,7.51 5.33,13.34l0 1.59c-2.15,-0.69 -4.38,-1.3 -6.66,-1.83 -2.28,-0.53 -4.77,-0.93 -7.47,-1.22 -2.68,-0.29 -5.73,-0.45 -9.1,-0.45 -4.9,0 -9.44,0.56 -13.57,1.67 -4.14,1.14 -7.72,2.84 -10.79,5.12 -3.05,2.28 -5.41,5.11 -7.11,8.59 -1.7,3.45 -2.54,7.47 -2.57,12.14 0.03,4.3 0.85,8.09 2.44,11.35 1.59,3.26 3.76,6.02 6.55,8.22 2.78,2.2 5.96,3.87 9.54,4.98 3.58,1.14 7.37,1.7 11.38,1.7 4.24,-0.03 8.06,-0.56 11.42,-1.62 3.4,-1.06 6.39,-2.49 9.02,-4.29 2.59,-1.83 4.85,-3.87 6.76,-6.18l0 10.34 19.09 0zm-153.01 1.91c6.36,-0.06 12.2,-1.2 17.5,-3.42 5.33,-2.23 9.94,-5.33 13.86,-9.28 3.93,-3.93 6.95,-8.46 9.1,-13.6 2.17,-5.15 3.26,-10.63 3.28,-16.49 -0.02,-5.81 -1.11,-11.17 -3.2,-16.12 -2.12,-4.96 -5.01,-9.28 -8.73,-12.97 -3.68,-3.71 -7.95,-6.6 -12.75,-8.64 -4.82,-2.07 -9.94,-3.13 -15.4,-3.16 -4.38,0.03 -8.33,0.51 -11.83,1.44 -3.5,0.92 -6.6,2.17 -9.28,3.68 -2.67,1.54 -4.93,3.24 -6.78,5.09 -1.86,1.83 -3.34,3.69 -4.4,5.54 0.21,-2.78 0.74,-5.43 1.56,-7.92 0.85,-2.5 2.1,-4.8 3.77,-6.87 1.67,-2.07 3.87,-3.9 6.62,-5.44 2.73,-1.53 6.13,-2.75 10.16,-3.63l45.81 -10.02 -3.18 -15.43 -45.81 9.54c-6.08,1.3 -11.14,3.32 -15.22,6.05 -4.09,2.73 -7.35,6.02 -9.79,9.86 -2.46,3.82 -4.32,8.06 -5.54,12.7 -1.24,4.62 -2.06,9.49 -2.46,14.58 -0.4,5.09 -0.59,10.26 -0.56,15.51 0.03,10.37 1.75,19.2 5.17,26.49 3.42,7.29 8.35,12.86 14.8,16.7 6.44,3.84 14.21,5.78 23.3,5.81zm0.32 -16.71c-3.48,-0.02 -6.68,-0.68 -9.65,-2.01 -2.94,-1.33 -5.52,-3.15 -7.72,-5.49 -2.2,-2.36 -3.9,-5.09 -5.11,-8.19 -1.22,-3.13 -1.83,-6.47 -1.86,-10.08 0.03,-3.63 0.61,-7.02 1.75,-10.15 1.17,-3.13 2.81,-5.89 4.96,-8.24 2.12,-2.36 4.66,-4.19 7.58,-5.52 2.94,-1.33 6.18,-1.99 9.73,-2.02 3.53,0.03 6.76,0.69 9.73,2.05 2.97,1.32 5.57,3.18 7.77,5.54 2.2,2.38 3.92,5.11 5.14,8.24 1.22,3.13 1.83,6.5 1.86,10.1 0,3.61 -0.59,6.95 -1.75,10.08 -1.14,3.1 -2.79,5.83 -4.91,8.19 -2.12,2.34 -4.66,4.16 -7.63,5.49 -2.97,1.33 -6.26,1.99 -9.89,2.01z" />
    <path fill="#E54925" fill-rule="nonzero"
          d="M1180.03 632.29l17.02 0 4.3 -25.61 26.09 0 -4.46 25.61 17.02 0 4.46 -25.61 18.77 0 0 -16.55 -15.91 0 4.61 -27.67 17.02 0 0 -16.55 -14.15 0 4.29 -24.97 -17.02 0 -4.13 24.97 -26.09 0 4.29 -24.97 -17.02 0 -4.3 24.97 -18.76 0 0 16.55 15.9 0 -4.61 27.67 -17.18 0 0 16.55 14.32 0 -4.46 25.61zm24.18 -42.16l4.77 -27.67 26.09 0 -4.77 27.67 -26.09 0z" />
    <path fill="white" fill-rule="nonzero"
          d="M2466.59 96.1l15.49 -0.01c3.28,0 5.87,-0.35 7.72,-1.04 1.87,-0.68 3.27,-1.78 4.23,-3.28 0.97,-1.49 1.45,-3.12 1.45,-4.88 0,-2.57 -0.94,-4.69 -2.8,-6.33 -1.87,-1.68 -4.84,-2.49 -8.89,-2.49l-17.21 0.02 0.01 18.01zm44.65 -27.3l0 0c-8.01,-7.98 -19.07,-12.93 -31.28,-12.92 -12.21,0 -23.27,4.97 -31.27,12.98 -7.98,8 -12.93,19.07 -12.92,31.29 0.02,12.22 4.98,23.27 12.99,31.26 8.01,8 19.07,12.93 31.28,12.92 12.23,-0.01 23.29,-4.96 31.26,-12.97l0.02 -0.01c7.98,-7.99 12.92,-19.05 12.9,-31.28 -0.01,-12.21 -4.97,-23.27 -12.98,-31.27zm-31.29 -20.22l0 0c14.23,-0.01 27.13,5.74 36.45,15.05 9.33,9.33 15.12,22.21 15.13,36.43 0.02,14.22 -5.73,27.1 -15.06,36.44l-0.01 0 0 0.01c-9.33,9.33 -22.19,15.12 -36.41,15.13 -14.24,0.02 -27.12,-5.74 -36.45,-15.06 -9.33,-9.31 -15.12,-22.19 -15.13,-36.43 -0.01,-14.22 5.74,-27.1 15.06,-36.42l0.01 -0.02c9.32,-9.34 22.19,-15.12 36.41,-15.13zm-20.53 77.96l0 0 -0.06 -54.47 24.14 -0.02c4.87,0 8.56,0.48 11.07,1.46 2.52,0.97 4.54,2.69 6.07,5.17 1.51,2.48 2.27,5.21 2.27,8.21 0,3.85 -1.25,7.11 -3.75,9.77 -2.49,2.65 -6.35,4.35 -11.57,5.07 1.91,0.9 3.35,1.81 4.34,2.7 2.1,1.93 4.09,4.35 5.99,7.24l9.49 14.81 -9.07 0.01 -7.21 -11.33c-2.11,-3.25 -3.84,-5.76 -5.23,-7.49 -1.35,-1.73 -2.58,-2.94 -3.65,-3.64 -1.08,-0.69 -2.17,-1.17 -3.28,-1.44 -0.83,-0.17 -2.16,-0.27 -4.02,-0.27l-8.36 0.01 0.02 24.2 -7.19 0.01z" />
    <path fill="white" fill-rule="nonzero"
          d="M645.1 377c2.78,6.13 2.92,12.53 0.42,19.22l-45.97 14.62c-7.8,0 -13.86,-2.92 -18.18,-8.77 -4.32,-5.85 -7.59,-13.23 -9.82,-22.15 -6.69,4.74 -13.72,9.06 -21.1,12.95 -7.39,3.91 -14.49,7.25 -21.32,10.03 -6.83,2.79 -13.02,4.95 -18.59,6.48 -5.58,1.53 -9.89,2.3 -12.96,2.3 -6.13,0 -11.91,-1.19 -17.34,-3.55 -5.43,-2.37 -10.23,-5.65 -14.41,-9.82 -4.18,-4.18 -7.46,-9.05 -9.82,-14.63 -2.37,-5.57 -3.56,-11.7 -3.56,-18.39 0,-15.88 5.02,-28.21 15.05,-36.98 10.03,-8.78 23.95,-15.53 41.78,-20.27l20.9 -5.43c5.29,-1.39 11.77,-3.13 19.43,-5.22 7.66,-2.09 14.69,-3.83 21.11,-5.23l0.41 -15.46c0,-13.09 -2.3,-23.54 -6.89,-31.34 -4.6,-7.8 -11.36,-11.7 -20.27,-11.7 -3.62,0 -8.92,0.62 -15.88,1.88 -6.97,1.25 -12.82,3.41 -17.55,6.48l0 32.17c-5.58,4.74 -11.28,7.67 -17.13,8.78 -5.85,1.12 -11.22,0.91 -16.09,-0.63 -4.88,-1.53 -8.85,-4.39 -11.91,-8.56 -3.07,-4.18 -4.6,-9.2 -4.6,-15.05 0,-6.69 2.93,-13.51 8.78,-20.47 5.85,-6.97 13.79,-13.17 23.82,-18.6 10.02,-5.43 21.73,-9.89 35.1,-13.37 13.37,-3.48 27.58,-5.23 42.62,-5.23 16.72,0 29.18,6.9 37.4,20.69 8.22,13.79 12.33,31.69 12.33,53.7l-2.51 68.95c0,8.92 1.05,16.23 3.14,21.94 2.09,5.71 5.5,9.26 10.24,10.66l13.37 0zm-76.89 -29.68l0 0c0,-4.73 0.06,-9.33 0.21,-13.79 0.13,-4.45 0.34,-8.91 0.62,-13.37 -6.41,0.28 -13.44,0.63 -21.1,1.05 -7.66,0.41 -14.14,1.18 -19.43,2.29l-15.46 3.35c-3.91,3.07 -6.55,7.1 -7.94,12.12 -1.4,5.01 -2.09,9.19 -2.09,12.53 0,7.25 1.73,13.45 5.22,18.6 3.48,5.16 9.26,7.73 17.34,7.73 4.46,0 10.87,-1.32 19.23,-3.97 8.35,-2.64 16.29,-6.75 23.82,-12.33 -0.28,-2.23 -0.42,-4.6 -0.42,-7.1 0,-2.51 0,-4.87 0,-7.11z" />
    <path fill="white" fill-rule="nonzero"
          d="M879.76 207.33c2.51,8.08 2.51,16.16 0,24.24l-9.19 4.6c-1.4,0.83 -2.72,1.88 -3.97,3.13 -1.26,1.25 -2.3,4.04 -3.14,8.36 -0.83,4.32 -1.53,11.01 -2.09,20.06 -0.56,9.05 -0.83,21.66 -0.83,37.81 0,12.27 0.06,24.18 0.21,35.73 0.13,11.57 0.76,23.06 1.88,34.48l53.07 0c1.67,0 3.13,-0.63 4.39,-1.88 1.25,-1.25 2.29,-4.24 3.13,-8.98 0.83,-4.74 1.46,-11.77 1.88,-21.11 0.42,-9.33 0.63,-22.07 0.63,-38.24 0,-13.37 -0.21,-25.49 -0.63,-36.35 -0.42,-10.87 -1.19,-21.87 -2.3,-33.01l-18.38 -4.6c-2.51,-7.24 -2.51,-15.32 0,-24.24l96.53 0c1.11,3.91 1.73,7.94 1.88,12.12 0.13,4.18 -0.36,8.22 -1.47,12.12l-11.28 4.6c-2.79,1.11 -5.08,2.44 -6.89,3.97 -1.82,1.53 -3.28,4.45 -4.39,8.77 -1.12,4.32 -1.88,10.87 -2.3,19.64 -0.42,8.78 -0.63,21.11 -0.63,36.98 0,6.69 0,13.79 0,21.32 0,7.52 0.07,14.62 0.21,21.31 0.14,6.69 0.35,12.61 0.63,17.76 0.27,5.16 0.69,8.56 1.25,10.24l24.24 5.01c3.06,8.09 3.06,16.16 0,24.24l-336.4 0c-0.83,-3.9 -1.32,-7.94 -1.46,-12.12 -0.14,-4.18 0.21,-8.21 1.04,-12.12l14.21 -4.59c3.06,-1.11 5.64,-2.51 7.73,-4.18 2.09,-1.67 3.69,-4.81 4.81,-9.41 1.11,-4.59 1.88,-11.42 2.3,-20.47 0.41,-9.05 0.62,-21.38 0.62,-36.99 0,-13.37 -0.14,-25.49 -0.41,-36.35 -0.28,-10.87 -1.12,-21.87 -2.51,-33.01l-25.49 -4.6c-2.51,-8.36 -2.51,-16.44 0,-24.24l97.36 0c2.23,7.8 2.23,15.88 0,24.24l-9.19 4.6c-1.4,0.83 -2.72,2.02 -3.97,3.55 -1.25,1.53 -2.3,4.59 -3.13,9.19 -0.84,4.6 -1.54,11.36 -2.09,20.27 -0.56,8.92 -0.84,21.04 -0.84,36.35 0,13.38 0.14,25.29 0.42,35.73 0.27,10.45 0.97,21.94 2.09,34.48l55.16 0c1.39,-1.11 2.65,-2.99 3.76,-5.64 1.11,-2.65 2.02,-6.62 2.72,-11.91 0.69,-5.29 1.25,-12.19 1.67,-20.69 0.42,-8.49 0.63,-19.15 0.63,-31.97 0,-13.37 -0.21,-25.49 -0.63,-36.35 -0.42,-10.87 -1.33,-21.87 -2.72,-33.01l-15.46 -4.6c-1.12,-3.62 -1.74,-7.45 -1.88,-11.49 -0.14,-4.04 0.48,-8.29 1.88,-12.75l87.34 0z" />
    <path fill="white" fill-rule="nonzero"
          d="M1290.11 231.57c-2.79,-8.63 -2.65,-16.72 0.41,-24.24l111.58 0c2.51,8.08 2.51,16.16 0,24.24l-19.64 4.6c-1.67,0.56 -3.21,1.32 -4.6,2.29 -1.39,0.98 -2.57,2.93 -3.55,5.85 -0.98,2.93 -1.88,7.25 -2.71,12.96 -0.84,5.71 -1.4,13.58 -1.68,23.61 5.02,-1.11 10.38,-2.23 16.09,-3.34 5.71,-1.11 11.21,-2.09 16.51,-2.93 5.29,-0.83 10.09,-1.53 14.42,-2.09 4.31,-0.55 7.58,-0.83 9.82,-0.83 8.35,0 16.15,1.53 23.4,4.59 7.24,3.07 13.44,7.32 18.59,12.75 5.15,5.43 9.26,11.91 12.33,19.43 3.06,7.52 4.6,15.61 4.6,24.24 0,12.26 -2.23,22.98 -6.69,32.18 -4.46,9.19 -11.63,16.78 -21.52,22.77 -9.89,5.99 -22.71,10.45 -38.45,13.37 -15.74,2.93 -34.75,4.39 -57.04,4.39l-71.87 0c-1.67,-8.08 -1.67,-16.15 0,-24.24l17.97 -4.59c2.78,-0.84 5.15,-1.89 7.1,-3.14 1.95,-1.25 3.48,-4.18 4.6,-8.77 1.11,-4.6 1.88,-11.56 2.29,-20.9 0.42,-9.33 0.63,-22.36 0.63,-39.07 0,-16.72 -0.21,-30.3 -0.63,-40.74 -0.41,-10.45 -1.04,-19.71 -1.87,-27.79l-30.09 -4.6zm104.05 69.37l0 0c-3.62,0 -7.52,0.14 -11.7,0.42 -4.18,0.28 -8.5,0.69 -12.95,1.25l0 21.31c0,10.87 0.48,20.55 1.46,29.05 0.97,8.49 2.15,15.25 3.55,20.26 4.45,1.67 10.72,2.79 18.8,3.35 8.08,0.56 15.89,-0.14 23.41,-2.1 5.57,-1.94 9.54,-6.26 11.91,-12.95 2.36,-6.68 3.55,-13.79 3.55,-21.31 0,-12.81 -3.7,-22.57 -11.08,-29.25 -7.38,-6.69 -16.36,-10.03 -26.95,-10.03zm195.15 -93.61l0 0c2.51,7.8 2.65,15.88 0.42,24.24l-10.86 4.6c-2.51,1.11 -4.53,2.44 -6.06,3.97 -1.54,1.53 -2.86,4.59 -3.97,9.19 -1.12,4.6 -1.88,11.28 -2.3,20.06 -0.42,8.77 -0.63,20.83 -0.63,36.14 0,6.69 0,13.79 0,21.32 0,7.52 0.07,14.62 0.21,21.31 0.14,6.69 0.42,12.61 0.84,17.76 0.41,5.16 0.9,8.56 1.46,10.24l22.56 5.01c2.51,7.53 2.51,15.61 0,24.24l-94.86 0c-2.5,-8.08 -2.5,-16.15 0,-24.24l10.03 -4.59c1.68,-0.84 3.14,-2.02 4.39,-3.56 1.26,-1.52 2.3,-4.73 3.14,-9.61 0.83,-4.87 1.52,-11.84 2.09,-20.89 0.55,-9.05 0.83,-21.38 0.83,-36.99 0,-13.37 -0.21,-25.49 -0.63,-36.35 -0.41,-10.87 -1.18,-21.87 -2.29,-33.01l-18.39 -4.6c-2.23,-8.08 -2.23,-16.16 0,-24.24l94.02 0z" />
    <path fill="white" fill-rule="nonzero"
          d="M1716.77 207.33c1.39,3.91 2.01,8.08 1.88,12.54 -0.15,4.46 -0.91,8.64 -2.3,12.54l-6.69 3.76c-1.67,1.11 -3.28,2.44 -4.81,3.97 -1.53,1.53 -2.85,4.25 -3.96,8.14 -1.12,3.91 -2.09,9.55 -2.93,16.93 -0.84,7.38 -1.25,17.48 -1.25,30.3 3.34,0 6.12,-0.28 8.36,-0.84 5.85,-1.11 11.7,-3.9 17.55,-8.36 5.85,-4.45 11.55,-9.54 17.13,-15.25 5.57,-5.71 10.65,-11.7 15.25,-17.97 4.6,-6.27 8.57,-11.91 11.91,-16.92l-14.62 -4.18c-1.4,-3.9 -2.09,-8.01 -2.09,-12.33 0,-4.32 0.69,-8.42 2.09,-12.33l84.41 0c3.06,7.52 3.06,15.61 0,24.24l-20.06 5.01c-5.3,1.4 -10.87,4.53 -16.72,9.41 -5.85,4.87 -11.7,10.38 -17.55,16.5 -5.85,6.13 -11.42,12.19 -16.71,18.18 -5.3,5.99 -9.9,10.66 -13.79,14l-0.42 1.67c7.24,3.07 14.62,8.85 22.15,17.34 7.52,8.51 15.04,17.55 22.56,27.17 7.53,9.61 14.84,18.74 21.94,27.37 7.11,8.64 13.86,14.77 20.27,18.39 3.06,6.41 3.06,13.37 0,20.89l-43.88 0c-5.29,-1.4 -10.73,-4.6 -16.3,-9.61 -5.57,-5.02 -11.07,-10.79 -16.5,-17.35 -5.44,-6.54 -10.73,-13.43 -15.88,-20.68 -5.16,-7.24 -10.03,-14 -14.63,-20.27 -4.6,-6.27 -8.92,-11.55 -12.95,-15.88 -4.04,-4.31 -7.6,-6.75 -10.66,-7.31 -3.34,-0.56 -6.97,-0.56 -10.86,0 0.27,10.59 0.76,20.83 1.46,30.71 0.69,9.9 2.02,19.72 3.97,29.47l17.13 4.59c3.06,8.09 3.06,16.16 0,24.24l-96.95 0c-3.07,-8.36 -3.07,-16.57 0,-24.66l14.63 -4.17c2.51,-0.84 4.6,-2.16 6.27,-3.97 1.67,-1.81 2.99,-5.23 3.97,-10.24 0.97,-5.02 1.67,-11.98 2.09,-20.9 0.41,-8.91 0.62,-20.89 0.62,-35.94 0,-13.37 -0.14,-25.49 -0.41,-36.35 -0.29,-10.87 -0.99,-21.87 -2.09,-33.01l-25.08 -4.6c-2.23,-8.36 -2.09,-16.44 0.42,-24.24l94.03 0z" />
    <path fill="white" fill-rule="nonzero"
          d="M2057.32 298.43c0,18.11 -2.92,34.2 -8.77,48.27 -5.85,14.07 -14.07,25.91 -24.66,35.52 -10.59,9.61 -23.19,16.92 -37.81,21.94 -14.63,5.01 -30.72,7.52 -48.27,7.52 -13.37,0 -26.05,-2.51 -38.03,-7.52 -11.98,-5.02 -22.42,-11.92 -31.34,-20.69 -8.92,-8.78 -15.95,-19.22 -21.1,-31.34 -5.16,-12.12 -7.73,-25.28 -7.73,-39.49 0,-17.83 3.2,-33.64 9.61,-47.43 6.41,-13.79 15.11,-25.42 26.12,-34.89 11,-9.47 24.03,-16.72 39.07,-21.74 15.04,-5.01 31.34,-7.52 48.89,-7.52 12.26,0 24.1,2.24 35.52,6.69 11.42,4.46 21.45,10.86 30.09,19.22 8.63,8.36 15.53,18.53 20.68,30.51 5.16,11.98 7.73,25.63 7.73,40.95zm-163.39 3.76l0 0c0,11.43 1.74,21.88 5.23,31.34 3.48,9.48 8.15,17.55 14,24.24 5.85,6.69 12.53,11.91 20.05,15.67 7.53,3.76 15.32,5.64 23.4,5.64 5.02,0 9.54,-0.27 13.59,-0.83 4.03,-0.56 8.14,-2.37 12.32,-5.44 4.74,-4.45 9.34,-11.76 13.79,-21.93 4.46,-10.17 6.69,-23.61 6.69,-40.33 0,-11.42 -1.53,-21.87 -4.6,-31.34 -3.06,-9.47 -7.31,-17.55 -12.74,-24.24 -5.43,-6.69 -11.91,-11.91 -19.43,-15.67 -7.52,-3.76 -15.61,-5.64 -24.24,-5.64 -5.85,0 -10.45,0.56 -13.79,1.67 -3.34,1.12 -6.83,2.51 -10.45,4.18 -5.58,4.74 -10.93,12.19 -16.09,22.36 -5.15,10.17 -7.73,23.61 -7.73,40.32z" />
    <path fill="white" fill-rule="nonzero"
          d="M2190.61 381.17c1.39,3.91 2.22,7.88 2.51,11.91 0.27,4.04 -0.57,8.15 -2.51,12.33l-125.79 0c-2.78,-8.63 -2.5,-16.71 0.84,-24.24l19.22 -4.59c4.18,-1.68 7.24,-7.04 9.2,-16.09 1.94,-9.05 2.92,-24.03 2.92,-44.93 0,-14.2 -0.21,-28.2 -0.62,-41.99 -0.42,-13.79 -1.05,-25.98 -1.89,-36.57l-33.01 0c-3.62,-9.19 -3.48,-18.24 0.42,-27.16l22.15 0c4.73,0 7.87,-1.67 9.4,-5.02 1.53,-3.34 2.3,-9.05 2.3,-17.13 0,-11.7 2.15,-21.66 6.48,-29.88 4.31,-8.21 9.81,-15.04 16.5,-20.48 6.69,-5.43 14.21,-9.67 22.57,-12.74 8.35,-3.06 16.43,-5.36 24.24,-6.9 7.79,-1.52 14.97,-2.5 21.52,-2.92 6.54,-0.42 11.49,-0.63 14.83,-0.63 10.87,0.84 20.27,4.04 28.21,9.61 7.94,5.58 12.95,11.64 15.04,18.18 2.09,6.55 0.69,12.89 -4.18,19.02 -4.87,6.13 -14.83,10.17 -29.87,12.11 -3.35,-8.63 -8.64,-15.94 -15.89,-21.93 -7.24,-5.99 -15.18,-8.43 -23.81,-7.32 -10.59,6.41 -17.42,15.26 -20.48,26.54 -3.07,11.28 -4.6,24.44 -4.6,39.49l47.22 0c3.06,8.36 3.06,17.41 0,27.16l-46.8 0 0 88.17c0,11.71 -0.07,21.81 -0.21,30.3 -0.14,8.51 -0.49,15.4 -1.05,20.69l45.14 5.01z" />
    <path fill="white" fill-rule="nonzero"
          d="M2350.73 381.17c1.39,3.91 2.23,7.88 2.51,11.91 0.27,4.04 -0.56,8.15 -2.51,12.33l-125.78 0c-2.79,-8.63 -2.51,-16.71 0.83,-24.24l19.22 -4.59c4.18,-1.68 7.25,-7.04 9.2,-16.09 1.95,-9.05 2.92,-24.03 2.92,-44.93 0,-14.2 -0.2,-28.2 -0.62,-41.99 -0.42,-13.79 -1.05,-25.98 -1.88,-36.57l-33.02 0c-3.62,-9.19 -3.48,-18.24 0.42,-27.16l22.15 0c4.73,0 7.87,-1.67 9.4,-5.02 1.53,-3.34 2.3,-9.05 2.3,-17.13 0,-11.7 2.16,-21.66 6.48,-29.88 4.31,-8.21 9.82,-15.04 16.5,-20.48 6.69,-5.43 14.21,-9.67 22.57,-12.74 8.36,-3.06 16.44,-5.36 24.24,-6.9 7.79,-1.52 14.97,-2.5 21.52,-2.92 6.54,-0.42 11.49,-0.63 14.83,-0.63 10.87,0.84 20.27,4.04 28.21,9.61 7.94,5.58 12.96,11.64 15.04,18.18 2.1,6.55 0.7,12.89 -4.17,19.02 -4.88,6.13 -14.84,10.17 -29.88,12.11 -3.35,-8.63 -8.64,-15.94 -15.88,-21.93 -7.25,-5.99 -15.19,-8.43 -23.82,-7.32 -10.59,6.41 -17.42,15.26 -20.48,26.54 -3.07,11.28 -4.6,24.44 -4.6,39.49l47.22 0c3.07,8.36 3.07,17.41 0,27.16l-46.8 0 0 88.17c0,11.71 -0.07,21.81 -0.21,30.3 -0.14,8.51 -0.49,15.4 -1.04,20.69l45.13 5.01z" />
    <path fill="url(#id0)"
          d="M361.9 3.4c-13.48,100.3 14.79,174.67 35.31,241.67 24.5,80.24 37.41,150.22 -47.47,243.76 -1.03,1.13 -2.01,1.72 -3.48,0.99 -1.11,-0.55 -1.51,-1.75 -1.35,-3.07 13.48,-100.3 -14.79,-174.68 -35.31,-241.68 -24.5,-80.24 -37.41,-150.22 47.47,-243.75 1.03,-1.13 2.01,-1.73 3.48,-1 1.11,0.55 1.51,1.76 1.35,3.08z" />
    <path fill="url(#id2)"
          d="M70.66 3.4c-13.48,100.3 14.79,174.67 35.32,241.67 24.49,80.24 37.4,150.22 -47.48,243.76 -1.03,1.13 -2.01,1.72 -3.48,0.99 -1.11,-0.55 -1.51,-1.75 -1.35,-3.07 13.48,-100.3 -14.79,-174.68 -35.31,-241.68 -24.5,-80.24 -37.41,-150.22 47.47,-243.75 1.03,-1.13 2.01,-1.73 3.48,-1 1.12,0.55 1.51,1.76 1.35,3.08z" />
    <path fill="url(#id1)"
          d="M216.19 3.4c-13.48,100.3 14.79,174.67 35.32,241.67 24.49,80.24 37.41,150.22 -47.48,243.76 -1.03,1.13 -2,1.72 -3.48,0.99 -1.11,-0.55 -1.51,-1.75 -1.34,-3.07 13.47,-100.3 -14.8,-174.68 -35.32,-241.68 -24.49,-80.24 -37.41,-150.22 47.47,-243.75 1.04,-1.13 2.01,-1.73 3.48,-1 1.12,0.55 1.51,1.76 1.35,3.08z" />
    <path fill="white" fill-rule="nonzero"
          d="M1153.66 235.33l-10.6 0c-1.89,11.14 -4.21,23.34 -6.95,36.57 -2.76,13.23 -6.2,26.46 -10.34,39.69 -4.14,13.24 -8.92,26.05 -14.33,38.45 -6.63,15.2 -23.29,44.99 -37.76,55.58 -7.8,5.71 -17,8.56 -27.58,8.56 -8.08,0 -14.63,-2.78 -19.64,-8.36 -5.01,-5.56 -7.94,-11.9 -8.78,-19 -0.83,-7.11 0.91,-13.93 5.23,-20.48 4.31,-6.55 11.76,-10.79 22.35,-12.75l19.65 8.36c10.53,-6.02 24.84,-43.52 28.08,-53.91 3.9,-12.54 7.05,-25.21 9.46,-38.03 2.41,-12.81 4.14,-23.82 5.19,-33.01l-30 -5.85c-1.03,-8.36 0.12,-16.3 3.44,-23.82 53.17,0 106.96,0 160.14,0 2.51,7.52 2.36,15.6 -0.42,24.24l-13.79 4.6c-3.63,1.39 -6.55,2.86 -8.78,4.39 -2.23,1.53 -3.97,4.53 -5.22,8.98 -0.52,1.83 -0.97,4 -1.37,6.5 0.23,3.55 0.74,7.78 1.5,12.72 3.82,25.17 19.04,78.79 31.68,106.7 0.1,0.23 0.17,0.46 0.2,0.7l27.16 5.01c2.51,8.09 2.51,16.16 0,24.24l-99.04 0c-2.23,-7.8 -2.23,-15.88 0,-24.24l10.45 -4.59c1.95,-0.84 3.55,-2.1 4.81,-3.77 0.3,-0.41 0.6,-0.91 0.88,-1.49 -2.12,-28.62 -26.38,-113.66 -35.62,-135.99z" />
 </g>
</svg>
